<mxfile host="app.diagrams.net" agent="Mozilla/5.0 (Windows NT 10.0; Win64; x64) AppleWebKit/537.36 (KHTML, like Gecko) Chrome/132.0.0.0 Safari/537.36 OPR/117.0.0.0" version="26.2.12">
  <diagram id="C5RBs43oDa-KdzZeNtuy" name="Page-1">
    <mxGraphModel dx="2027" dy="1125" grid="1" gridSize="10" guides="1" tooltips="1" connect="1" arrows="1" fold="1" page="0" pageScale="1" pageWidth="827" pageHeight="1169" math="0" shadow="0">
      <root>
        <mxCell id="WIyWlLk6GJQsqaUBKTNV-0" />
        <mxCell id="WIyWlLk6GJQsqaUBKTNV-1" parent="WIyWlLk6GJQsqaUBKTNV-0" />
        <mxCell id="mjiAr6823_ONT9yc4Zep-2" style="edgeStyle=orthogonalEdgeStyle;rounded=0;orthogonalLoop=1;jettySize=auto;html=1;" edge="1" parent="WIyWlLk6GJQsqaUBKTNV-1" source="mjiAr6823_ONT9yc4Zep-0" target="mjiAr6823_ONT9yc4Zep-1">
          <mxGeometry relative="1" as="geometry" />
        </mxCell>
        <mxCell id="mjiAr6823_ONT9yc4Zep-0" value="&lt;font style=&quot;font-size: 16px;&quot;&gt;Inicio App&lt;/font&gt;" style="ellipse;html=1;fontSize=29;whiteSpace=wrap;" vertex="1" parent="WIyWlLk6GJQsqaUBKTNV-1">
          <mxGeometry x="180" y="280" width="120" height="80" as="geometry" />
        </mxCell>
        <mxCell id="mjiAr6823_ONT9yc4Zep-6" style="edgeStyle=orthogonalEdgeStyle;rounded=0;orthogonalLoop=1;jettySize=auto;html=1;entryX=0;entryY=0.5;entryDx=0;entryDy=0;" edge="1" parent="WIyWlLk6GJQsqaUBKTNV-1" source="mjiAr6823_ONT9yc4Zep-1" target="mjiAr6823_ONT9yc4Zep-5">
          <mxGeometry relative="1" as="geometry" />
        </mxCell>
        <mxCell id="mjiAr6823_ONT9yc4Zep-8" style="edgeStyle=orthogonalEdgeStyle;rounded=0;orthogonalLoop=1;jettySize=auto;html=1;entryX=0.5;entryY=0;entryDx=0;entryDy=0;" edge="1" parent="WIyWlLk6GJQsqaUBKTNV-1" source="mjiAr6823_ONT9yc4Zep-1" target="mjiAr6823_ONT9yc4Zep-7">
          <mxGeometry relative="1" as="geometry" />
        </mxCell>
        <mxCell id="mjiAr6823_ONT9yc4Zep-1" value="&lt;font style=&quot;font-size: 14px;&quot;&gt;Pantalla Login&lt;/font&gt;" style="rounded=1;whiteSpace=wrap;html=1;" vertex="1" parent="WIyWlLk6GJQsqaUBKTNV-1">
          <mxGeometry x="180" y="430" width="120" height="60" as="geometry" />
        </mxCell>
        <mxCell id="mjiAr6823_ONT9yc4Zep-28" style="edgeStyle=orthogonalEdgeStyle;rounded=0;orthogonalLoop=1;jettySize=auto;html=1;entryX=0;entryY=0.5;entryDx=0;entryDy=0;" edge="1" parent="WIyWlLk6GJQsqaUBKTNV-1" target="mjiAr6823_ONT9yc4Zep-30">
          <mxGeometry relative="1" as="geometry">
            <mxPoint x="760" y="460" as="sourcePoint" />
            <mxPoint x="840" y="460" as="targetPoint" />
          </mxGeometry>
        </mxCell>
        <mxCell id="mjiAr6823_ONT9yc4Zep-27" style="edgeStyle=orthogonalEdgeStyle;rounded=0;orthogonalLoop=1;jettySize=auto;html=1;entryX=0;entryY=0.5;entryDx=0;entryDy=0;" edge="1" parent="WIyWlLk6GJQsqaUBKTNV-1" source="mjiAr6823_ONT9yc4Zep-5">
          <mxGeometry relative="1" as="geometry">
            <mxPoint x="610" y="460" as="targetPoint" />
          </mxGeometry>
        </mxCell>
        <mxCell id="mjiAr6823_ONT9yc4Zep-5" value="Registro" style="rounded=1;whiteSpace=wrap;html=1;fontSize=14;" vertex="1" parent="WIyWlLk6GJQsqaUBKTNV-1">
          <mxGeometry x="400" y="430" width="120" height="60" as="geometry" />
        </mxCell>
        <mxCell id="mjiAr6823_ONT9yc4Zep-25" style="edgeStyle=orthogonalEdgeStyle;rounded=0;orthogonalLoop=1;jettySize=auto;html=1;entryX=0.5;entryY=0;entryDx=0;entryDy=0;" edge="1" parent="WIyWlLk6GJQsqaUBKTNV-1" source="mjiAr6823_ONT9yc4Zep-7" target="mjiAr6823_ONT9yc4Zep-24">
          <mxGeometry relative="1" as="geometry">
            <mxPoint x="120" y="750" as="targetPoint" />
            <Array as="points">
              <mxPoint x="240" y="730" />
              <mxPoint x="120" y="730" />
            </Array>
          </mxGeometry>
        </mxCell>
        <mxCell id="mjiAr6823_ONT9yc4Zep-26" style="edgeStyle=orthogonalEdgeStyle;rounded=0;orthogonalLoop=1;jettySize=auto;html=1;" edge="1" parent="WIyWlLk6GJQsqaUBKTNV-1" source="mjiAr6823_ONT9yc4Zep-7" target="mjiAr6823_ONT9yc4Zep-23">
          <mxGeometry relative="1" as="geometry" />
        </mxCell>
        <mxCell id="mjiAr6823_ONT9yc4Zep-7" value="Inicio Sesión" style="rounded=1;whiteSpace=wrap;html=1;fontSize=14;" vertex="1" parent="WIyWlLk6GJQsqaUBKTNV-1">
          <mxGeometry x="180" y="625" width="120" height="55" as="geometry" />
        </mxCell>
        <mxCell id="mjiAr6823_ONT9yc4Zep-22" style="edgeStyle=orthogonalEdgeStyle;rounded=0;orthogonalLoop=1;jettySize=auto;html=1;entryX=1;entryY=0.5;entryDx=0;entryDy=0;exitX=1;exitY=0.5;exitDx=0;exitDy=0;" edge="1" parent="WIyWlLk6GJQsqaUBKTNV-1" source="mjiAr6823_ONT9yc4Zep-17" target="mjiAr6823_ONT9yc4Zep-7">
          <mxGeometry relative="1" as="geometry">
            <mxPoint x="1150" y="660" as="targetPoint" />
          </mxGeometry>
        </mxCell>
        <mxCell id="mjiAr6823_ONT9yc4Zep-17" value="&lt;font style=&quot;font-size: 14px;&quot;&gt;Registro Válido&lt;/font&gt;" style="rounded=1;whiteSpace=wrap;html=1;" vertex="1" parent="WIyWlLk6GJQsqaUBKTNV-1">
          <mxGeometry x="1060" y="430" width="120" height="60" as="geometry" />
        </mxCell>
        <mxCell id="mjiAr6823_ONT9yc4Zep-23" value="Interfaz Trabajador" style="rounded=1;whiteSpace=wrap;html=1;" vertex="1" parent="WIyWlLk6GJQsqaUBKTNV-1">
          <mxGeometry x="300" y="780" width="120" height="60" as="geometry" />
        </mxCell>
        <mxCell id="mjiAr6823_ONT9yc4Zep-24" value="Interfaz Empresa" style="rounded=1;whiteSpace=wrap;html=1;" vertex="1" parent="WIyWlLk6GJQsqaUBKTNV-1">
          <mxGeometry x="60" y="780" width="120" height="60" as="geometry" />
        </mxCell>
        <mxCell id="mjiAr6823_ONT9yc4Zep-29" value="Tipo Usuario&lt;div&gt;- Empresa&lt;/div&gt;&lt;div&gt;- Trabajador&lt;/div&gt;" style="rounded=1;whiteSpace=wrap;html=1;" vertex="1" parent="WIyWlLk6GJQsqaUBKTNV-1">
          <mxGeometry x="610" y="420" width="160" height="70" as="geometry" />
        </mxCell>
        <mxCell id="mjiAr6823_ONT9yc4Zep-32" style="edgeStyle=orthogonalEdgeStyle;rounded=0;orthogonalLoop=1;jettySize=auto;html=1;entryX=0;entryY=0.5;entryDx=0;entryDy=0;" edge="1" parent="WIyWlLk6GJQsqaUBKTNV-1" source="mjiAr6823_ONT9yc4Zep-30" target="mjiAr6823_ONT9yc4Zep-17">
          <mxGeometry relative="1" as="geometry" />
        </mxCell>
        <mxCell id="mjiAr6823_ONT9yc4Zep-33" style="edgeStyle=orthogonalEdgeStyle;rounded=0;orthogonalLoop=1;jettySize=auto;html=1;" edge="1" parent="WIyWlLk6GJQsqaUBKTNV-1" source="mjiAr6823_ONT9yc4Zep-30" target="mjiAr6823_ONT9yc4Zep-34">
          <mxGeometry relative="1" as="geometry">
            <mxPoint x="905" y="350" as="targetPoint" />
          </mxGeometry>
        </mxCell>
        <mxCell id="mjiAr6823_ONT9yc4Zep-30" value="¿Campos Válidso?" style="rhombus;whiteSpace=wrap;html=1;" vertex="1" parent="WIyWlLk6GJQsqaUBKTNV-1">
          <mxGeometry x="840" y="420" width="130" height="80" as="geometry" />
        </mxCell>
        <mxCell id="mjiAr6823_ONT9yc4Zep-34" value="Mostrar Error" style="rounded=1;whiteSpace=wrap;html=1;" vertex="1" parent="WIyWlLk6GJQsqaUBKTNV-1">
          <mxGeometry x="845" y="280" width="120" height="60" as="geometry" />
        </mxCell>
      </root>
    </mxGraphModel>
  </diagram>
</mxfile>
